# xmcd
#
# Track frame offsets:
#	150
#	13712
#	30692
#	46675
#	62117
#	74607
#	89872
#	100305
#	116312
#	130655
#	146302
#	162465
#	177425
#	191865
#
# Disc length: 2788 seconds
#
# Revision: 2
# Processed by: cddbd v1.4PL0 Copyright (c) Steve Scherf et al.
# Submitted via: audiograbber 1.82.00
#
DISCID=c80ae20e
DTITLE=Various Artist - Hot Hits Country Vol. 4
DYEAR=1993
DGENRE=country
TTITLE0=Brooks and Dunn - Hard Workin Man
TTITLE1=Deborah Allen - Rock Me In The cradle Of Love
TTITLE2=Radney Foster - Novody Wins
TTITLE3=Tracy Byrd - Someone To Give My Love To
TTITLE4=Lorrie Morgan - What Part Of No
TTITLE5=Reba McEntire - The Heart Won't Lie
TTITLE6=George Strait - Heartland
TTITLE7=PamTillis - Let That Pony Run
TTITLE8=Mark Collie - Born To Love You 
TTITLE9=Billy Ray Cyrus - She's Not Cryin Anymore
TTITLE10=Shenandoah - Leavin's Been A Long Time Comin
TTITLE11=John Anderson - Let Go Of The Stone
TTITLE12=Randy Travis - Look Heart No Hands
TTITLE13=Mark Chesnut - 'Ol' Country
EXTD=
EXTT0=
EXTT1=
EXTT2=
EXTT3=
EXTT4=
EXTT5=
EXTT6=
EXTT7=
EXTT8=
EXTT9=
EXTT10=
EXTT11=
EXTT12=
EXTT13=
PLAYORDER=
